<?xml version="1.0" encoding="utf-8"?>
<!-- Generator: Adobe Illustrator 22.1.0, SVG Export Plug-In . SVG Version: 6.00 Build 0)  -->
<svg version="1.1" id="Laag_1" xmlns="http://www.w3.org/2000/svg" xmlns:xlink="http://www.w3.org/1999/xlink" x="0px" y="0px"
	 viewBox="0 0 205.4 151.7" style="enable-background:new 0 0 205.4 151.7;" xml:space="preserve">
<style type="text/css">
	.st0{fill:url(#SVGID_1_);}
	.st1{fill:#163E65;}
	.st2{fill:url(#SVGID_2_);}
	.st3{fill:#FFFFFF;}
	.st4{fill:#6BA63F;}
</style>
<g>
	<g>
		<linearGradient id="SVGID_1_" gradientUnits="userSpaceOnUse" x1="104.2463" y1="14.0679" x2="104.2463" y2="79.0906">
			<stop  offset="0" style="stop-color:#6BA63F"/>
			<stop  offset="0.2098" style="stop-color:#5F9D3E"/>
			<stop  offset="0.5515" style="stop-color:#40873B"/>
			<stop  offset="0.9806" style="stop-color:#006733"/>
			<stop  offset="1" style="stop-color:#006633"/>
		</linearGradient>
		<path class="st0" d="M142.7,47.1c-1.5-9.8-6.1-17.9-13.8-24.2c-7.8-6.4-16.8-9.3-26.9-8.8c-0.8,0.1-1.7,0.1-2.5,0.2
			c-0.6,0.1-1.3,0.1-1.9,0.3c-0.2,0-0.4,0-0.6,0c-6.9,1.3-13,4.2-18.3,8.9c-7.8,6.9-12.2,15.5-13.3,25.8c-0.2,1.7-0.3,3.3,0,5
			c1.6-3.2,3.2-6.5,4.7-9.7c0.3-0.3,0.4-0.7,0.5-1.1c0.4-0.8,0.9-1.7,1.3-2.5c0.1-0.2,0.3-0.4,0.1-0.7c-0.3-0.8-0.1-1.6,0.7-2
			c0.8-0.4,1.5-0.1,2,0.6c0.2,0.5,0.1,0.9,0,1.4c-0.3,0.3-0.5,0.7-1,0.7c-0.4,0.1-0.5,0.3-0.7,0.6c-1,2-2,3.9-2.9,5.9
			c-0.5,1.1-1,2.1-1.6,3.3c0.8-0.4,1.5-0.7,2.2-0.6c0.7,0.1,1.1-0.2,1.5-0.6c7-7.1,15.6-10,25.4-8.7c6.7,0.9,12.5,4,17.9,8
			c1.3,1,2.3,2.3,3.6,3.3c0,0,0,0,0,0c0,0.3,0.3,0.5,0.5,0.7c2.7,3.2,4.6,6.8,5.7,10.8c1.2,4.3,1.6,8.7,0.7,13.1
			c0,0.2-0.1,0.5,0,0.6c0.8,0.6,1.1,1.5,1.4,2.6c1.6-3.2,3.1-6.3,4.7-9.4c0.2-0.3,0.1-0.5,0-0.8c-0.2-0.8,0.2-1.6,1-1.8
			c0.8-0.2,1.6,0.2,1.8,0.9c0.3,0.8-0.1,1.6-0.9,1.9c-0.5,0.2-0.7,0.4-0.9,0.9c-2,4.1-4,8.1-6,12.2c-0.1,0.1-0.2,0.3,0,0.5
			c0.2-0.2,0.5-0.3,0.7-0.5c4.7-3.6,8.3-8,11-13.2c1.8-3.4,3.1-7,3.6-10.9c0-0.1,0-0.2,0.1-0.4c0-0.1,0-0.2,0.1-0.4
			c0.1-0.5,0.3-1.1,0.2-1.6C143.4,54.1,143.3,50.6,142.7,47.1z"/>
		<path class="st1" d="M75.7,38.9c0.3,0,0.5,0.2,0.5,0.5C75.7,39.6,75.5,39.5,75.7,38.9z"/>
		<path class="st1" d="M111.7,33c-0.3,0.1-0.5,0.2-0.8,0.3c-0.1-0.4,0.3-0.5,0.2-0.8C111.5,32.5,111.7,32.7,111.7,33z"/>
		<path class="st1" d="M111.2,32.5c-0.4,0-0.6-0.1-0.5-0.5C111,31.9,111.2,32.1,111.2,32.5z"/>
		<path class="st1" d="M125.8,46.9c-0.3,0-0.5,0-0.5-0.4C125.5,46.5,125.7,46.6,125.8,46.9z"/>
		<path class="st1" d="M128.3,43.5c0.1,0.1,0.2,0.2,0.2,0.4C128.3,43.8,128.3,43.6,128.3,43.5z"/>
		<path class="st1" d="M128.5,43.9c0.1,0.1,0.1,0.1,0.2,0.2C128.6,44,128.5,43.9,128.5,43.9z"/>
		<path class="st1" d="M128.6,44c0.1,0.1,0.1,0.1,0.2,0.2C128.8,44.2,128.7,44.1,128.6,44z"/>
		<path class="st1" d="M125.3,46.5c-0.1-0.1-0.1-0.1-0.2-0.2C125.1,46.4,125.2,46.5,125.3,46.5z"/>
		<path class="st1" d="M138.9,62.6c0.9,0.5,0.5,0.7,0.1,1C138.7,63.3,139.1,63,138.9,62.6z"/>
		<path class="st1" d="M138.3,63.1c0-0.4,0.2-0.6,0.5-0.6c0,0,0.1,0.1,0.1,0.2C138.8,62.8,138.6,62.9,138.3,63.1z"/>
		<path class="st1" d="M137.7,63.8c-0.1-0.1-0.1-0.1-0.2-0.2C137.6,63.7,137.7,63.7,137.7,63.8z"/>
		<path class="st1" d="M95.9,19.6c-0.2,0-0.3,0.4-0.6,0.3C95.5,19.3,95.5,19.3,95.9,19.6L95.9,19.6z"/>
		<path class="st1" d="M95,18.6c0.1,0.1,0.3,0.2,0.3,0.4c0,0-0.1,0.1-0.1,0.1C94.9,18.9,95,18.7,95,18.6C95,18.6,95,18.6,95,18.6z"
			/>
		<path class="st1" d="M94.6,19.4C94.6,19.4,94.6,19.3,94.6,19.4c0-0.1,0.1,0,0.1,0C94.7,19.4,94.7,19.4,94.6,19.4
			C94.6,19.4,94.6,19.4,94.6,19.4z"/>
		<path class="st1" d="M94.1,20.2C94,20.1,94,20,93.9,20C94,20,94,20.1,94.1,20.2z"/>
		<path class="st1" d="M109.6,34.6c0.1-0.5,0.3-0.7,0.6-0.7c0.1,0,0.2,0.2,0.2,0.2C110.2,34.3,110,34.4,109.6,34.6z"/>
		<path class="st1" d="M109.4,33.7c0,0.1,0,0.3-0.2,0.3c0,0-0.1,0-0.1-0.1C109.1,33.7,109.3,33.7,109.4,33.7L109.4,33.7z"/>
		<path class="st1" d="M110.4,32.6C110.4,32.6,110.4,32.7,110.4,32.6C110.4,32.7,110.4,32.6,110.4,32.6
			C110.4,32.6,110.4,32.6,110.4,32.6C110.4,32.6,110.4,32.6,110.4,32.6z"/>
		<path class="st1" d="M125.1,48.8c-0.3-0.1-0.5,0.4-0.8,0.2c0.1-0.3,0.2-0.6,0.5-0.7C125,48.4,125.1,48.6,125.1,48.8
			C125.1,48.8,125.1,48.8,125.1,48.8z"/>
		<path class="st1" d="M105.8,37.1c0,0.1,0,0.2-0.1,0.2C105.6,37.2,105.8,37.2,105.8,37.1C105.8,37.1,105.8,37.1,105.8,37.1z"/>
		<linearGradient id="SVGID_2_" gradientUnits="userSpaceOnUse" x1="103.3472" y1="56.4275" x2="92.7425" y2="76.0757">
			<stop  offset="0.2444" style="stop-color:#2397D4"/>
			<stop  offset="0.4292" style="stop-color:#2191D0"/>
			<stop  offset="0.7292" style="stop-color:#1D82C5"/>
			<stop  offset="1" style="stop-color:#1D71B8"/>
		</linearGradient>
		<path class="st2" d="M118,72.7c-1.2-4.3-3.8-7.7-7.2-10.5c-3.9-3.3-8.5-5.5-13.2-7.4c-2.3-1-4.8-1.7-7.3-1.9h0
			c-0.4-0.2-0.8-0.2-1.2-0.1c-1.2-0.1-2.3-0.1-3.5,0c-5.5,0.5-9.9,2.9-12.7,7.9c-1.6,3-2.1,6.2-1.2,9.5c0,0.4,0.1,0.7,0.3,1.1
			c0.3,1.1,0.9,2.1,1.6,2.9c2.8,3.5,6.6,4.6,10.8,4.9c4.4,0.3,8,2,10.8,5.4c0.8,0.9,1.7,1.9,2.6,2.6c3.5,2.8,7.4,4,11.8,2.4
			C116.4,87.2,120,79.7,118,72.7z"/>
	</g>
	<circle class="st3" cx="108" cy="76.8" r="4.4"/>
	<path class="st3" d="M90.5,65.5L89,65.1l0.4-1.5c0.3-1-0.3-2-1.3-2.3c-1-0.3-2,0.3-2.3,1.3l-0.4,1.5l-1.5-0.4c-1-0.3-2,0.3-2.3,1.3
		c-0.3,1,0.3,2,1.3,2.3l1.5,0.4L84,69.2c-0.3,1,0.3,2,1.3,2.3c1,0.3,2-0.3,2.3-1.3l0.4-1.5l1.5,0.4c1,0.3,2-0.3,2.3-1.3
		C92.1,66.8,91.5,65.7,90.5,65.5z"/>
	<g>
		<path class="st4" d="M38.1,119.9c0,0.2,0,0.4-0.1,0.6c-0.1,0.2-0.2,0.4-0.3,0.5c-0.1,0.1-0.3,0.2-0.5,0.3
			c-0.2,0.1-0.4,0.1-0.6,0.1H25.4c-0.3,0-0.6,0-0.9-0.1c-0.3-0.1-0.7-0.2-1-0.3c-0.3-0.1-0.6-0.3-0.9-0.6c-0.3-0.2-0.6-0.5-0.8-0.8
			c-0.2-0.3-0.4-0.7-0.5-1.1c-0.1-0.4-0.2-0.9-0.2-1.4v-8.4c0-0.3,0-0.6,0.1-0.9c0.1-0.3,0.2-0.7,0.3-1c0.1-0.3,0.3-0.6,0.6-0.9
			s0.5-0.6,0.8-0.8c0.3-0.2,0.7-0.4,1.1-0.5c0.4-0.1,0.9-0.2,1.4-0.2H38v3.1H25.4c-0.4,0-0.7,0.1-0.9,0.3s-0.3,0.5-0.3,1v8.4
			c0,0.4,0.1,0.7,0.3,0.9c0.2,0.2,0.5,0.3,0.9,0.3H35v-3.9h-8.3v-3.1h9.8c0.2,0,0.4,0,0.6,0.1c0.2,0.1,0.4,0.2,0.5,0.3
			c0.1,0.1,0.2,0.3,0.3,0.5c0.1,0.2,0.1,0.4,0.1,0.6V119.9z"/>
		<path class="st4" d="M59.3,114.6c0,1-0.2,2-0.5,2.9s-0.9,1.6-1.5,2.3c-0.6,0.6-1.4,1.1-2.3,1.5s-1.8,0.5-2.8,0.5H48
			c-1,0-2-0.2-2.9-0.5c-0.9-0.4-1.6-0.8-2.3-1.5c-0.6-0.6-1.1-1.4-1.5-2.3c-0.4-0.9-0.5-1.8-0.5-2.9v-3.3c0-1,0.2-2,0.5-2.9
			c0.4-0.9,0.9-1.6,1.5-2.3c0.6-0.6,1.4-1.1,2.3-1.5c0.9-0.4,1.8-0.5,2.9-0.5h4.2c1,0,2,0.2,2.8,0.5c0.9,0.4,1.6,0.9,2.3,1.5
			c0.6,0.6,1.1,1.4,1.5,2.3c0.4,0.9,0.5,1.8,0.5,2.9V114.6z M56.2,111.3c0-0.6-0.1-1.2-0.3-1.7c-0.2-0.5-0.5-0.9-0.8-1.3
			c-0.4-0.4-0.8-0.6-1.3-0.8c-0.5-0.2-1-0.3-1.6-0.3H48c-0.6,0-1.2,0.1-1.7,0.3c-0.5,0.2-0.9,0.5-1.3,0.8s-0.6,0.8-0.8,1.3
			c-0.2,0.5-0.3,1.1-0.3,1.7v3.3c0,0.6,0.1,1.2,0.3,1.7c0.2,0.5,0.5,0.9,0.8,1.3c0.4,0.4,0.8,0.6,1.3,0.8c0.5,0.2,1,0.3,1.7,0.3h4.2
			c0.6,0,1.2-0.1,1.7-0.3c0.5-0.2,0.9-0.5,1.3-0.8c0.4-0.4,0.6-0.8,0.8-1.3c0.2-0.5,0.3-1.1,0.3-1.7V111.3z"/>
		<path class="st4" d="M79.5,114.3c0,1-0.2,2-0.5,2.9c-0.4,0.9-0.9,1.6-1.5,2.3c-0.6,0.6-1.4,1.1-2.3,1.5c-0.9,0.4-1.8,0.5-2.9,0.5
			h-8.4c-0.2,0-0.4,0-0.6-0.1c-0.2-0.1-0.4-0.2-0.5-0.3c-0.1-0.1-0.2-0.3-0.3-0.5c-0.1-0.2-0.1-0.4-0.1-0.6v-14c0-0.2,0-0.4,0.1-0.6
			c0.1-0.2,0.2-0.4,0.3-0.5c0.1-0.1,0.3-0.3,0.5-0.3c0.2-0.1,0.4-0.1,0.6-0.1h8.4c1,0,2,0.2,2.9,0.5c0.9,0.4,1.6,0.9,2.3,1.5
			c0.6,0.6,1.1,1.4,1.5,2.3c0.4,0.9,0.5,1.8,0.5,2.9V114.3z M76.4,111.6c0-0.6-0.1-1.2-0.3-1.7c-0.2-0.5-0.5-0.9-0.8-1.3
			c-0.4-0.4-0.8-0.6-1.3-0.8c-0.5-0.2-1-0.3-1.7-0.3h-6.8v10.9h6.8c0.6,0,1.2-0.1,1.7-0.3c0.5-0.2,0.9-0.5,1.3-0.8
			c0.4-0.4,0.6-0.8,0.8-1.3c0.2-0.5,0.3-1.1,0.3-1.7V111.6z"/>
		<path class="st4" d="M100.5,114.6c0,1-0.2,2-0.5,2.9c-0.4,0.9-0.9,1.6-1.5,2.3c-0.6,0.6-1.4,1.1-2.3,1.5c-0.9,0.4-1.8,0.5-2.8,0.5
			h-4.2c-1,0-2-0.2-2.9-0.5c-0.9-0.4-1.6-0.8-2.3-1.5c-0.6-0.6-1.1-1.4-1.5-2.3s-0.5-1.8-0.5-2.9v-3.3c0-1,0.2-2,0.5-2.9
			c0.4-0.9,0.9-1.6,1.5-2.3c0.6-0.6,1.4-1.1,2.3-1.5c0.9-0.4,1.8-0.5,2.9-0.5h4.2c1,0,2,0.2,2.8,0.5c0.9,0.4,1.6,0.9,2.3,1.5
			c0.6,0.6,1.1,1.4,1.5,2.3c0.4,0.9,0.5,1.8,0.5,2.9V114.6z M97.4,111.3c0-0.6-0.1-1.2-0.3-1.7c-0.2-0.5-0.5-0.9-0.8-1.3
			c-0.4-0.4-0.8-0.6-1.3-0.8c-0.5-0.2-1-0.3-1.6-0.3h-4.2c-0.6,0-1.2,0.1-1.7,0.3c-0.5,0.2-0.9,0.5-1.3,0.8
			c-0.4,0.4-0.6,0.8-0.8,1.3c-0.2,0.5-0.3,1.1-0.3,1.7v3.3c0,0.6,0.1,1.2,0.3,1.7c0.2,0.5,0.5,0.9,0.8,1.3c0.4,0.4,0.8,0.6,1.3,0.8
			c0.5,0.2,1,0.3,1.7,0.3h4.2c0.6,0,1.2-0.1,1.7-0.3c0.5-0.2,0.9-0.5,1.3-0.8c0.4-0.4,0.6-0.8,0.8-1.3c0.2-0.5,0.3-1.1,0.3-1.7
			V111.3z"/>
		<path class="st4" d="M118.8,107.5H112v14h-3.1v-14H102v-3.1h16.8V107.5z"/>
		<path class="st4" d="M131.1,114.3h-11.2v-2.8h11.2V114.3z"/>
		<path class="st4" d="M150.1,121.5h-14.2c-0.2,0-0.4,0-0.6-0.1c-0.2-0.1-0.4-0.2-0.5-0.3c-0.1-0.1-0.2-0.3-0.3-0.5
			c-0.1-0.2-0.1-0.4-0.1-0.6v-15.6h3.1v14h12.6V121.5z"/>
		<path class="st4" d="M168.8,116.5c0,0.6-0.1,1.2-0.2,1.7c-0.2,0.5-0.4,0.9-0.6,1.3c-0.3,0.4-0.6,0.7-0.9,1
			c-0.3,0.3-0.7,0.5-1.1,0.6c-0.4,0.2-0.7,0.3-1.1,0.4c-0.4,0.1-0.7,0.1-1.1,0.1h-12v-3.1h12c0.6,0,1.1-0.2,1.4-0.5
			c0.3-0.4,0.5-0.8,0.5-1.4c0-0.3,0-0.5-0.1-0.8c-0.1-0.2-0.2-0.4-0.4-0.6c-0.2-0.2-0.4-0.3-0.6-0.4c-0.2-0.1-0.5-0.1-0.8-0.1h-7.1
			c-0.5,0-1-0.1-1.6-0.3c-0.6-0.2-1.1-0.5-1.6-0.9c-0.5-0.4-0.9-0.9-1.2-1.6c-0.3-0.6-0.5-1.4-0.5-2.4c0-0.9,0.2-1.7,0.5-2.4
			c0.3-0.6,0.7-1.2,1.2-1.6c0.5-0.4,1-0.7,1.6-0.9c0.6-0.2,1.1-0.3,1.6-0.3h10.6v3.1h-10.6c-0.6,0-1,0.2-1.4,0.5
			c-0.3,0.4-0.5,0.8-0.5,1.4c0,0.6,0.2,1.1,0.5,1.4c0.3,0.3,0.8,0.5,1.4,0.5h7.1h0c0.3,0,0.7,0.1,1.1,0.1s0.7,0.2,1.1,0.4
			c0.4,0.2,0.7,0.4,1.1,0.7c0.3,0.3,0.6,0.6,0.9,1c0.3,0.4,0.5,0.8,0.6,1.3C168.7,115.3,168.8,115.9,168.8,116.5z"/>
		<path class="st4" d="M188.4,111.6c0,0.7-0.1,1.3-0.3,1.9c-0.2,0.6-0.4,1-0.7,1.5c-0.3,0.4-0.6,0.8-1,1.1c-0.4,0.3-0.8,0.5-1.2,0.7
			c-0.4,0.2-0.9,0.3-1.3,0.4c-0.4,0.1-0.8,0.1-1.2,0.1h-7v-3.1h7c0.4,0,0.8-0.1,1.1-0.2c0.3-0.1,0.6-0.3,0.8-0.5
			c0.2-0.2,0.4-0.5,0.5-0.8c0.1-0.3,0.2-0.7,0.2-1.1v-1.4c0-0.4-0.1-0.7-0.3-1.1c-0.1-0.3-0.3-0.6-0.5-0.8c-0.2-0.2-0.5-0.4-0.8-0.5
			c-0.3-0.1-0.7-0.2-1.1-0.2h-7c-0.4,0-0.7,0.1-0.9,0.3s-0.3,0.5-0.3,0.9v12.8h-3.1v-12.8c0-0.8,0.1-1.5,0.4-2
			c0.3-0.6,0.7-1,1.1-1.3c0.4-0.3,0.9-0.6,1.4-0.7c0.5-0.2,1-0.2,1.4-0.2h7c0.7,0,1.3,0.1,1.9,0.3c0.6,0.2,1,0.4,1.5,0.7
			c0.4,0.3,0.8,0.6,1.1,1c0.3,0.4,0.5,0.8,0.7,1.2c0.2,0.4,0.3,0.9,0.4,1.3c0.1,0.4,0.1,0.8,0.1,1.2V111.6z"/>
		<path class="st4" d="M85.9,136.8c0,0.1,0,0.2-0.1,0.3c0,0.1-0.1,0.2-0.2,0.3c-0.1,0.1-0.2,0.1-0.3,0.2c-0.1,0-0.2,0.1-0.3,0.1
			c-0.1,0-0.2,0-0.3-0.1c-0.1,0-0.2-0.1-0.3-0.2c-0.1-0.1-0.1-0.2-0.2-0.3c0-0.1-0.1-0.2-0.1-0.3c0-0.1,0-0.2,0.1-0.3
			c0-0.1,0.1-0.2,0.2-0.3c0.1-0.1,0.2-0.1,0.3-0.2c0.1,0,0.2-0.1,0.3-0.1c0.1,0,0.2,0,0.3,0.1c0.1,0,0.2,0.1,0.3,0.2
			c0.1,0.1,0.1,0.2,0.2,0.3C85.9,136.5,85.9,136.6,85.9,136.8z"/>
		<path class="st4" d="M96.8,136.9c0,0.1,0,0.2-0.1,0.3c0,0.1-0.1,0.2-0.2,0.3c-0.1,0.1-0.2,0.1-0.3,0.2c-0.1,0-0.2,0.1-0.3,0.1
			c-0.1,0-0.2,0-0.3-0.1c-0.1,0-0.2-0.1-0.3-0.2l-6.2-6.5v6.6h-1.7v-8.7c0-0.2,0-0.3,0.1-0.5c0.1-0.1,0.2-0.2,0.4-0.3
			c0.2-0.1,0.3-0.1,0.5,0c0.2,0,0.3,0.1,0.4,0.2l6.2,6.5v-6.6h1.7V136.9z"/>
		<path class="st4" d="M108.2,128.2l-4.4,9.1c-0.1,0.1-0.2,0.3-0.3,0.3s-0.3,0.1-0.5,0.1c-0.2,0-0.3,0-0.4-0.1
			c-0.1-0.1-0.2-0.2-0.3-0.3l-4.4-9.1h1.9l3.3,6.8l3.3-6.8H108.2z"/>
		<path class="st4" d="M110.9,137.6h-1.7v-9.4h1.7V137.6z"/>
		<path class="st4" d="M123.8,137.6h-1.7V132l-3,5.3c-0.1,0.1-0.2,0.2-0.3,0.3c-0.1,0.1-0.3,0.1-0.4,0.1c-0.1,0-0.3,0-0.4-0.1
			c-0.1-0.1-0.2-0.2-0.3-0.3l-3-5.3v5.6h-1.7v-8.7c0-0.2,0.1-0.4,0.2-0.5c0.1-0.2,0.3-0.3,0.5-0.3c0.1,0,0.2,0,0.3,0
			c0.1,0,0.2,0,0.3,0.1c0.1,0,0.2,0.1,0.2,0.1c0.1,0.1,0.1,0.1,0.2,0.2l3.9,6.7l3.9-6.7c0.1-0.2,0.2-0.3,0.4-0.4
			c0.2-0.1,0.4-0.1,0.6,0c0.2,0.1,0.3,0.2,0.5,0.3c0.1,0.2,0.2,0.3,0.2,0.5V137.6z"/>
	</g>
</g>
</svg>
